<svg xmlns="http://www.w3.org/2000/svg" xmlns:xlink="http://www.w3.org/1999/xlink" id="Layer_1" x="0px" y="0px" viewBox="0 0 595.28 277.95" style="enable-background:new 0 0 595.28 277.95;" xml:space="preserve"><style type="text/css">	.st0{fill:none;stroke:#ED1C24;stroke-miterlimit:10;}	.st1{fill:#ED1C24;}	.st2{fill:#808285;}</style><g>	<g>		<circle class="st0" cx="57.91" cy="55.14" r="13.61"></circle>		<g>			<path class="st1" d="M53.45,47.61c1.02-0.21,2.48-0.32,3.87-0.32c2.15,0,3.54,0.39,4.52,1.27c0.79,0.7,1.23,1.76,1.23,2.96    c0,2.06-1.3,3.43-2.94,3.98v0.07c1.2,0.42,1.92,1.53,2.29,3.15c0.51,2.18,0.88,3.68,1.2,4.29h-2.08    c-0.25-0.44-0.6-1.78-1.04-3.73c-0.46-2.15-1.3-2.96-3.13-3.03h-1.9v6.76h-2.02V47.61z M55.46,54.72h2.06    c2.15,0,3.52-1.18,3.52-2.96c0-2.02-1.46-2.9-3.59-2.92c-0.97,0-1.67,0.09-1.99,0.19V54.72z"></path>		</g>	</g>	<g>		<path class="st2" d="M44.04,220.35c1.03,0.39,2.47,0.83,4.08,0.83c1.97,0,3.12-0.74,3.12-2.27c0-1.73-1.31-2.25-3.47-2.95   c-2.53-0.83-4.08-1.94-4.08-4.41c0-2.69,1.88-4.17,5.07-4.17c1.4,0,2.9,0.33,3.86,0.72l-0.46,1.9c-1.03-0.35-2.14-0.61-3.28-0.61   c-1.94,0-2.88,0.72-2.88,2.1c0,1.48,0.98,1.99,2.88,2.62c2.62,0.87,4.67,1.79,4.67,4.78c0,2.97-2.36,4.3-5.35,4.3   c-1.83,0-3.52-0.37-4.61-0.85L44.04,220.35z"></path>		<path class="st2" d="M59.61,208.58c0-0.76,0.5-1.31,1.38-1.31c0.85,0,1.35,0.55,1.35,1.31c0,0.81-0.5,1.35-1.35,1.35   C60.11,209.94,59.61,209.39,59.61,208.58z M62.1,222.93h-2.21v-11.07h2.21V222.93z"></path>		<path class="st2" d="M69.28,222.93v-10.31c1.35-0.63,3.08-1.03,4.76-1.03c3.06,0,4.67,1.55,4.67,4.21v7.12h-2.21v-6.97   c0-1.59-0.81-2.51-2.47-2.51c-0.92,0-1.81,0.2-2.55,0.57v8.91H69.28z"></path>		<path class="st2" d="M93.7,212.25l-0.44,1.77c-0.83-0.35-1.77-0.57-2.62-0.57c-2.14,0-3.3,1.55-3.3,3.95   c0,2.55,1.22,3.93,3.52,3.93c0.81,0,1.7-0.22,2.51-0.61l0.39,1.79c-0.76,0.39-1.88,0.68-3.06,0.68c-3.58,0-5.61-2.16-5.61-5.74   c0-3.52,1.96-5.85,5.39-5.85C91.73,211.59,92.89,211.88,93.7,212.25z"></path>		<path class="st2" d="M104.81,223.19c-3.47,0-5.76-2.12-5.76-5.81c0-3.41,2.03-5.79,5.22-5.79c2.88,0,4.59,2.08,4.59,4.85   c0,0.57-0.04,1.05-0.09,1.46h-7.45c0.22,2.34,1.55,3.41,3.69,3.41c1.09,0,2.21-0.26,3.19-0.68l0.37,1.79   C107.54,222.91,106.23,223.19,104.81,223.19z M101.34,216.49h5.35c0.02-0.13,0.02-0.22,0.02-0.35c0-1.46-0.76-2.73-2.45-2.73   C102.56,213.41,101.54,214.61,101.34,216.49z"></path>		<path class="st2" d="M126.69,222.93v-12.34c-1.03,0.48-1.99,0.98-2.97,1.57l-0.94-1.73c1.16-0.79,2.75-1.59,4.15-2.16h2.01v14.65   H126.69z"></path>		<path class="st2" d="M136.26,222.75l0.33-1.88c0.76,0.22,1.64,0.37,2.49,0.37c2.9,0,4.15-1.53,4.43-4.45   c-0.85,0.57-2.1,0.98-3.49,0.98c-3.08,0-4.63-1.99-4.63-4.72c0-3.08,2.1-5.04,5.02-5.04c3.86,0,5.42,3.21,5.42,7.21   c0,4.78-1.7,7.97-6.62,7.97C138.02,223.19,137.02,222.99,136.26,222.75z M143.57,214.96c-0.04-2.75-0.83-5-3.14-5   c-1.75,0-2.77,1.27-2.77,3.08c0,1.55,0.79,2.77,2.79,2.77C141.63,215.81,142.74,215.48,143.57,214.96z"></path>		<path class="st2" d="M151.37,222.23l0.68-1.79c0.98,0.46,2.12,0.81,3.49,0.81c2.18,0,3.28-1.09,3.28-2.9   c0-1.81-1.31-2.69-3.71-2.69c-1.16,0-2.25,0.2-3.06,0.35l0.72-7.73h7.29v1.92h-5.52l-0.35,3.65c0.5-0.04,1.03-0.09,1.66-0.09   c3.45,0,5.26,1.7,5.26,4.54c0,2.97-2.07,4.89-5.55,4.89C153.66,223.19,152.46,222.8,151.37,222.23z"></path>		<path class="st2" d="M167.57,222.93c1.42-5.15,3.12-8.93,5.11-12.73H166v-1.92h9.04V210c-2.03,4.21-3.73,7.93-5.09,12.93H167.57z"></path>	</g>	<path class="st1" d="M158.63,41.68h-49.04c-12.07,0-24.74,9.53-28.28,21.28l-21.95,72.68c-3.55,11.75,3.37,21.28,15.44,21.28h49.04  c12.07,0,24.74-9.53,28.28-21.28l21.95-72.68C177.61,51.21,170.7,41.68,158.63,41.68z M140.79,81.38l-10.93,35.74  c-1.73,6.82-8.82,12.35-15.84,12.35h-11.77c-7.01,0-11.29-5.53-9.56-12.35c0,0,11.11-36.45,11.2-36.8  c1.97-6.31,4.31-11.3,15.56-11.3h11.77C138.24,69.02,142.52,74.55,140.79,81.38z"></path>	<g>		<path class="st1" d="M541.8,145.13c0,0-294.09-0.06-294.18-0.06c-1.32,0-11.58-0.93-8.8-7.78c0.04-0.1,2.43-9.47,8.71-12.49   c1.94-1.18,10.8-6.07,11.98-6.73c3.13-1.99,7.1-5.19,8.84-10.02c1.53-4.48,13.67-45.15,13.67-45.15   c3.52-12.65-5.78-21.28-16.09-21.28h-48c-13.39-0.34-24.16,9.53-27.96,21.28c0,0-24.96,82.97-25.2,83.67   c-3.06,9.17-10.23,23.46-27.83,25.12c-1.82-0.03-28.26,0.21-51.43,0.09c-17.87-0.09-33.47-0.09-33.47-0.09   c-5.05-0.02-8.82,3.69-8.42,8.79l0.02,8.78c0.41,5.1,4.83,9.01,9.89,9.02h101.52c12.05-0.12,24.62-9.38,28.16-21.06l29.22-96.7   c2.2-6.83,9.73-11.94,16.77-11.94h11.82c7.04,0,10.12,5.11,7.91,11.94c0,0-2.03,6.64-3.69,12.11   c-1.86,6.11-15.14,9.26-19.64,13.16c-3.68,3.19-6.66,7.17-8.4,11.53c-0.01,0-10.59,32.88-10.59,32.88   c-3.79,11.75,1.56,21.23,13.68,21.23h111.6l211.22,0.27c5.05,0.02,8.82-4.1,8.42-9.2l0.14-8.78   C551.28,148.63,546.85,145.15,541.8,145.13z"></path>	</g>	<g>		<path class="st2" d="M332.7,66.46l-17.87,0c-3.73,0-7.47,0.72-10.79,2.39c-4.07,2.05-7.24,4.95-9.5,8.72   c-2.05,3.41-3.07,7.12-3.07,11.11c0,5.22,1.74,9.94,5.23,14.16c0.79,0.95,1.67,1.83,2.62,2.62c4.4,3.64,9.41,5.45,15.03,5.45   c4.17,0,7.98-1,11.44-3c3.46-2,6.2-4.69,8.21-8.06c2.01-3.38,3.02-7.1,3.02-11.17V70.66C337.01,68.34,335.08,66.46,332.7,66.46z    M323.14,88.68c0,2.41-0.85,4.46-2.54,6.15c-1.65,1.64-3.67,2.49-6.05,2.53c-2.38,0.04-4.75-0.85-6.47-2.46   c-1.82-1.7-2.73-3.78-2.73-6.23c0-2.41,0.88-4.48,2.65-6.2c1.76-1.72,3.88-2.59,6.35-2.59h5.91c1.59,0,2.88,1.26,2.88,2.81V88.68z   "></path>		<path class="st2" d="M399.24,119.37l-23.22,0c-0.79,0-1.42,0.64-1.42,1.4c0.01,5.16,4.3,9.35,9.6,9.35h13.19   c1.75,0,3.16-1.38,3.16-3.09v-6.38C400.55,119.94,399.96,119.37,399.24,119.37z"></path>		<path class="st2" d="M504.21,74.29c-0.68-0.8-1.44-1.56-2.25-2.24c-4.44-3.73-9.5-5.59-15.19-5.59h-36.14   c-0.65,0-0.88-0.83-0.33-1.16l16.62-9.72c3.24-1.9,4.18-6.07,2.06-9.12l-1.96-2.82c-0.74-1.07-2.21-1.39-3.35-0.73l-29.58,17.3   c-1.37,0.8-2.21,2.24-2.21,3.81c0,2.59-0.01,6.32-0.01,9.42c0,3.63,3.01,6.57,6.73,6.57h48.17c2.9,0,5.31,1.16,7.23,3.48   c0.92,1.11,1.51,2.48,1.69,3.9c0.41,3.36-0.72,6.08-3.39,8.17c-1.59,1.25-3.64,1.82-5.68,1.82c0,0-63.25-0.01-63.38-0.02   c-2.87-0.17-5.24-1.55-7.11-4.12c-0.87-1.19-1.26-2.66-1.26-4.12l0.18-20.04c0-0.95-0.91-1.64-1.85-1.41l-4.5,1.1   c-4.24,1.03-7.25,4.61-7.56,8.81c-0.01,0-0.02,0.01-0.03,0.01v0.35c0,0.12-0.03,0.24-0.03,0.36v6.59h0.03v3.8   c0,3.09-1.44,5.57-4.32,7.48c-1.26,0.83-2.78,1.21-4.3,1.21l-8.22,0c-2.96,0-5.35-2.34-5.35-5.23v-3.46   c0-4.07-1.01-7.79-3.02-11.17c-2.01-3.38-4.75-6.06-8.21-8.06c-3.46-2-7.27-3-11.44-3h-7.99c-2.37,0-4.29,1.88-4.29,4.19v3.09   c0,3.46,2.87,6.27,6.42,6.27h5.87c2.47,0,4.57,0.84,6.3,2.53c1.73,1.69,2.59,3.74,2.59,6.15v3.94c0,2.62-2.18,4.75-4.86,4.75   h-15.3c-1.44,0-2.61,1.14-2.61,2.54v2.91c0,4.47,3.71,8.09,8.29,8.09h41.44c3.11,0,6.02-0.6,8.74-1.81   c1.63-0.72,3.13-1.6,4.52-2.63c1.52-1.13,3.7-1.13,5.22,0.01c1.37,1.03,2.87,1.9,4.51,2.62c2.47,1.08,5.07,1.68,7.83,1.79   c0.32,0.01,63.86,0.02,63.86,0.02c5.63,0,10.64-1.82,15.04-5.47c0.95-0.79,1.83-1.67,2.61-2.62c3.48-4.22,5.22-8.93,5.22-14.14   C509.65,83.37,507.83,78.57,504.21,74.29z"></path>		<path class="st2" d="M549.64,41.58l-4.5,1.1c-0.56,0.14-1.1,0.32-1.61,0.54c-1.03,0.44-1.96,1.04-2.77,1.77   c-0.4,0.36-0.77,0.76-1.11,1.18c-1.35,1.68-2.13,3.79-2.13,6.05v0v6.59v49.94c0,1.2,1,2.17,2.22,2.17h9.54   c1.23,0,2.22-0.97,2.22-2.17V42.99v0C551.49,42.04,550.58,41.35,549.64,41.58z"></path>		<path class="st2" d="M528.71,62.96l-4.5,1.1c-4.48,1.09-7.63,5.03-7.63,9.54c0,0,0.13,36.56,0.11,37.12   c0.05,3.01-2.26,4.33-2.26,4.33l-1.69,1.09c-3.2,2.07-4.06,6.29-1.93,9.4l2.31,3.37c0.85,1.24,2.58,1.58,3.85,0.75l9.48-6.17   c2.56-1.67,4.1-4.47,4.1-7.48V64.99v-0.62C530.56,63.42,529.65,62.73,528.71,62.96z"></path>	</g>	<g>		<path class="st2" d="M345.14,199.82c-1.91-1.11-4.02-1.66-6.32-1.66h-22.73c-1.05-0.04-1.67-1.41-0.32-2.11l12.03-7.54   c1.54-0.95,1.97-2.99,0.94-4.48l-0.52-0.75c-0.36-0.53-1.08-0.68-1.62-0.34l-22.2,13.87c-0.41,0.25-0.65,0.69-0.65,1.17   l-0.02,3.49c0,1.23,1,2.22,2.22,2.22l32.31,0c2.25,0,4.52,0.82,5.97,2.54c1.05,1.24,1.57,2.72,1.57,4.43   c0,1.91-0.68,3.55-2.05,4.92c-1.37,1.37-3.01,2.05-4.92,2.05c0,0-44.05,0-44.2-0.01c-1.78-0.07-3.31-0.75-4.6-2.04   c-1.37-1.37-2.05-3.01-2.05-4.92v-27.61c0-0.3-0.28-0.52-0.57-0.45l-2.44,0.6c-1.48,0.37-2.52,1.69-2.52,3.22v24.24   c0,2.26,0.56,4.34,1.69,6.25c1.13,1.91,2.65,3.43,4.56,4.56c1.81,1.07,3.78,1.63,5.91,1.69c0.15,0,44.23,0,44.23,0   c2.3,0,4.41-0.56,6.32-1.69c1.91-1.13,3.43-2.65,4.56-4.56c1.13-1.91,1.69-3.99,1.69-6.25c0-2.3-0.56-4.41-1.69-6.32   C348.57,202.44,347.05,200.93,345.14,199.82z"></path>		<path class="st2" d="M378.4,207.71h2.75c0.32,0,0.58-0.26,0.58-0.58v-3.89c0-1-0.81-1.81-1.81-1.81h-4.79   c-0.32,0-0.58,0.26-0.58,0.58v1.85C374.55,205.99,376.27,207.71,378.4,207.71z"></path>		<path class="st2" d="M266.67,192.88h2.75c0.32,0,0.58-0.26,0.58-0.58v-3.89c0-1-0.81-1.81-1.81-1.81h-4.79   c-0.32,0-0.58,0.26-0.58,0.58v1.85C262.82,191.16,264.54,192.88,266.67,192.88z"></path>		<path class="st2" d="M393.36,196.35l-3.25,0.79c-1.04,0.25-1.78,1.19-1.78,2.27v24.48c0,1.95-0.67,3.61-2.02,4.98   c-1.35,1.37-3,2.05-4.95,2.05h-6.45c-1.91,0-3.55-0.69-4.92-2.08c-1.37-1.39-2.05-3.04-2.05-4.95v-14.06   c0-0.3-0.28-0.52-0.57-0.45l-3.17,0.77c-1.09,0.27-1.85,1.24-1.85,2.36v11.38c0,2.3,0.56,4.41,1.69,6.32   c1.13,1.91,2.67,3.4,4.59,4.53c2.12,1.24,13.04,2.91,19.05,0c1.99-0.96,3.43-2.62,4.56-4.53c1.13-1.91,1.69-4.02,1.69-6.32V196.8   C393.93,196.5,393.65,196.28,393.36,196.35z"></path>		<path class="st2" d="M468.58,196.08h8.55c0.63,0,1.14-0.51,1.14-1.14v-2.54c0-0.63-0.51-1.14-1.14-1.14h-11.88   c-0.26,0-0.46,0.21-0.46,0.46v0.57C464.8,194.38,466.49,196.08,468.58,196.08z"></path>		<path class="st2" d="M406.13,182.6l-2.8,0.7c-1.5,0.38-2.56,1.73-2.56,3.28v0.35v11.09v23.81c0,0.85,0.69,1.54,1.54,1.54H405   c0.86,0,1.56-0.7,1.56-1.56v-34.32l0-4.55C406.56,182.72,406.35,182.55,406.13,182.6z"></path>		<path class="st2" d="M551.49,213.93c0-0.07-0.02-0.13-0.02-0.19l0.01-0.84l0-12.02l0-0.46c0,0,0,3.64,0,3.63v-4.46   c0-0.22-0.21-0.39-0.43-0.33l-2.8,0.7c-1.5,0.38-2.56,1.73-2.56,3.28l-0.01,23.91c0,1.12-0.55,2.19-1.49,2.79   c-1.76,1.13-2.25,3.47-1.1,5.21l0.45,0.68c0.38,0.58,1.17,0.74,1.75,0.35l5.09-3.43c0.68-0.46,1.1-1.23,1.1-2.06v-1.34   c0-0.57,0-1.14,0-1.74v-1.75c0-0.03,0.01-0.05,0.02-0.08V213.93z"></path>		<path class="st2" d="M419.3,213.93c0-0.07-0.02-0.13-0.02-0.19l0.01-0.84l0-12.02l0-0.46c0,0,0,3.64,0,3.63v-4.46   c0-0.22-0.21-0.39-0.43-0.33l-2.8,0.7c-1.5,0.38-2.56,1.73-2.56,3.28l-0.01,23.91c0,1.12-0.55,2.19-1.49,2.79   c-1.76,1.13-2.25,3.47-1.1,5.21l0.45,0.68c0.38,0.58,1.17,0.74,1.75,0.35l5.09-3.43c0.68-0.46,1.1-1.23,1.1-2.06v-1.34   c0-0.57,0-1.14,0-1.74v-1.75c0-0.03,0.01-0.05,0.02-0.08V213.93z"></path>		<path class="st2" d="M538.44,202.16l-2.71,0.68c-1.1,0.27-1.95,1.09-2.3,2.11c-0.13,0.35-0.21,0.73-0.21,1.12l0.02,7.52   c-0.02,1.32-0.62,2.43-1.82,3.32c-0.36,0.27-0.8,0.41-1.23,0.54c-0.36,0.1-0.97,0.16-1.14,0.15c-1.35-0.07-2.45-0.77-3.32-2.13   c-0.26-0.41-0.37-0.9-0.37-1.39l-0.02-9.68c0-0.22-0.2-0.37-0.41-0.32l-2.69,0.67c-1.45,0.36-2.46,2.22-2.46,3.71l-0.03,5.57   c0,0.48-0.11,0.97-0.36,1.39c-0.89,1.46-2.1,2.2-3.61,2.2c-1.46,0-2.65-0.73-3.56-2.18c-0.26-0.41-0.36-0.9-0.36-1.38v-0.35h0   l0-9.31c0-0.22-0.2-0.37-0.41-0.32l-2.69,0.67c-1.45,0.36-2.46,2.22-2.46,3.71l0,4.21c0,1.24-0.39,2.31-1.17,3.22   c-1.04,1.2-2.65,1.73-4.23,1.73c0,0-4.32-0.08-4.32-0.08c-1.69-0.16-2.86-0.82-4-1.97c-1.37-1.37-2.05-3.01-2.05-4.92v-10.93   c0-0.3-0.28-0.52-0.57-0.45l-4.61,1.14c-0.21,0.05-0.35,0.24-0.35,0.45v9.8c0,1.91-0.68,3.55-2.05,4.92   c-1.37,1.37-3.01,2.05-4.92,2.05h-0.07l-0.02,0.08c-0.07-0.04-0.15-0.08-0.24-0.08H451.6c-0.26,0-0.46-0.21-0.46-0.46v-16.42   c0-1.47-1.19-2.65-2.65-2.65h-9.91c-2.26,0-4.34,0.56-6.25,1.69c-1.91,1.13-3.43,2.66-4.56,4.59c-1.48,2.52-1.98,5.32-1.54,8.4   c0.12,0.84,0.37,1.68,0.72,2.45c1.21,2.68,3.01,4.75,5.37,6.21c1.87,1.15,3.8,1.73,5.8,1.73h4.78c0.46,0,0.64,0.6,0.26,0.85   l-10.82,7.16c-1.08,0.72-1.37,2.17-0.64,3.25l0.81,1.19c0.55,0.82,1.1,1.04,1.93,0.49l15.19-9.77c0.96-0.64,1.53-1.71,1.53-2.86   v-0.31h26.52c0.09,0,0.17-0.03,0.24-0.07l0.03,0.07h0.07c1.95,0,3.78-0.44,5.47-1.34c1.51-0.8,2.81-1.84,3.87-3.15   c0.19-0.23,0.53-0.23,0.72,0.01c1.03,1.3,2.32,2.35,3.88,3.14c0.94,0.48,1.93,0.82,2.94,1.04c0.1,0.03,0.21,0.04,0.32,0.06   c0.4,0.08,0.8,0.13,1.21,0.17c0.2,0.02,0.39,0.07,0.59,0.08c0.15,0.01,4.35,0.01,4.35,0.01c1.44,0,2.81-0.29,4.1-0.88   c0.97-0.44,1.85-1,2.65-1.69c0.43-0.37,1.05-0.43,1.47-0.06c0.67,0.59,1.48,1.13,2.42,1.62c1.29,0.67,2.55,1.01,3.79,1.01   c1.34,0,2.59-0.27,3.76-0.8c0.88-0.4,1.67-0.91,2.37-1.53c0.41-0.37,1.03-0.31,1.46,0.03c0.7,0.56,1.48,1.04,2.33,1.45   c1.19,0.57,2.38,0.85,3.58,0.85c1.37,0,2.68-0.28,3.92-0.85c0.07-0.03,0.7-0.38,0.86-0.5c1.47-0.87,2.64-2.04,3.51-3.51   c0.86-1.47,1.3-3.07,1.3-4.81v-11.05C538.85,202.27,538.65,202.11,538.44,202.16z M445.6,217.17c0,0.26-0.21,0.46-0.46,0.46h-6.57   c-1.91,0-3.55-0.69-4.92-2.08c-1.37-1.39-2.05-3.04-2.05-4.95c0-1.91,0.68-3.55,2.05-4.92c1.37-1.37,3.01-2.05,4.92-2.05h5.15   c1.04,0,1.89,0.84,1.89,1.89V217.17z"></path>		<path class="st2" d="M274.08,198.16h-11.05c-2.26,0-4.34,0.55-6.25,1.66c-1.91,1.11-3.43,2.62-4.56,4.53   c-1.13,1.91-1.69,4.02-1.69,6.32c-0.15,3.67,1.66,5.84,2.45,6.63c0.13,0.13,0.04,0.34-0.14,0.34c-1.6,0-6.55-0.01-6.66-0.01   c-0.51,0-1.68,0-3.09,0.01c-3.61,0-6.04,0-6.07,0c-1.78-0.07-3.31-0.75-4.6-2.04c-1.36-1.36-2.04-2.99-2.05-4.9   c0-0.17-0.01-0.32,0-0.5V198.7c0-0.3-0.24-0.54-0.54-0.54h-11.97c-2.26,0-4.34,0.56-6.25,1.69c-1.91,1.13-3.43,2.65-4.56,4.56   c-1.13,1.91-1.69,3.99-1.69,6.25c0,2.26,0.56,4.34,1.69,6.25c1.13,1.91,2.65,3.43,4.56,4.56c1.91,1.13,3.99,1.69,6.25,1.69   c2,0,3.85-0.43,5.57-1.3c1.01-0.51,3.16-1.81,4-2.51c0.24-0.2,0.42-0.33,0.59-0.43c0.88,0.99,1.89,1.85,3.06,2.54   c1.81,1.07,3.78,1.63,5.91,1.69c0.04,0,35.88,0,35.88,0c1.51,0,2.74-1.23,2.74-2.74v-20.76   C275.6,198.84,274.92,198.16,274.08,198.16z M222.32,216.03c-1.25,1.07-2.74,1.6-4.47,1.6c-1.91,0-3.55-0.68-4.92-2.05   c-1.37-1.37-2.05-3.01-2.05-4.92c0-1.73,0.53-3.22,1.6-4.47c1.44-1.69,3.66-2.5,5.88-2.5l5.92,0c0.3,0,0.54,0.24,0.54,0.54v3.75   v2.18C224.82,212.38,224,214.59,222.32,216.03z M270,217.1c0,0.3-0.24,0.54-0.54,0.54h-6.43c-1.91,0-3.55-0.68-4.92-2.05   c-1.37-1.37-2.05-3.01-2.05-4.92c0-2.05,0.75-3.77,2.26-5.15c1.38-1.26,3.26-1.82,5.13-1.82l5.01,0c0.85,0,1.54,0.69,1.54,1.54   V217.1z"></path>	</g></g></svg>